<?xml version="1.0" standalone="no"?>
<!DOCTYPE svg PUBLIC "-//W3C//DTD SVG 20010904//EN"
 "http://www.w3.org/TR/2001/REC-SVG-20010904/DTD/svg10.dtd">
<svg version="1.0" xmlns="http://www.w3.org/2000/svg"
 width="500.000000pt" height="500.000000pt" viewBox="0 0 500.000000 500.000000"
 preserveAspectRatio="xMidYMid meet">

<g transform="translate(0.000000,500.000000) scale(0.100000,-0.100000)"
fill="#000000" stroke="none">
<path d="M2505 4194 c-169 -18 -302 -49 -454 -106 -297 -111 -567 -328 -756
-608 -155 -230 -233 -448 -265 -740 -29 -263 36 -615 160 -860 59 -116 189
-297 290 -403 102 -107 272 -237 385 -295 281 -144 603 -210 890 -183 196 19
440 88 610 174 90 45 269 172 349 248 251 237 403 509 478 850 19 90 22 133
22 324 0 248 -14 341 -79 521 -89 246 -202 422 -390 609 -208 207 -431 338
-705 414 -156 43 -406 68 -535 55z m242 -84 c181 -14 355 -58 495 -124 21 -10
36 -22 33 -26 -6 -9 19 -21 52 -25 20 -3 193 -102 193 -111 0 -2 -8 0 -17 3
-16 6 -17 5 -3 -13 14 -18 14 -18 -2 -5 -10 7 -15 18 -11 24 4 6 0 8 -10 4
-10 -4 -22 1 -30 13 -8 11 -16 18 -19 15 -2 -3 -39 15 -82 39 -42 24 -90 49
-106 56 -17 7 -27 17 -23 23 4 6 0 8 -10 4 -22 -8 -49 2 -40 16 3 6 1 7 -6 3
-6 -4 -39 2 -74 13 -103 35 -201 60 -210 54 -4 -2 -16 -1 -25 3 -18 8 -25 8
-242 13 -80 2 -136 5 -125 8 11 3 24 9 30 14 11 11 77 11 232 -1z m-350 -36
c-3 -3 -12 -4 -19 -1 -8 3 -5 6 6 6 11 1 17 -2 13 -5z m256 -58 c18 -3 66 -8
107 -11 99 -7 127 -13 178 -35 23 -10 42 -16 42 -13 0 3 6 1 13 -4 6 -6 35
-17 62 -26 48 -15 177 -74 220 -99 75 -46 144 -96 171 -125 17 -18 34 -33 38
-33 8 0 73 -57 126 -110 47 -47 148 -173 190 -235 19 -27 38 -53 43 -56 5 -3
8 -9 8 -13 -3 -19 0 -27 8 -22 11 7 23 -22 15 -35 -3 -5 0 -9 6 -9 6 0 8 -5 4
-12 -4 -6 -3 -8 3 -5 6 4 38 -24 72 -61 34 -37 68 -74 76 -82 7 -8 23 -49 34
-90 23 -84 19 -31 -6 70 -61 254 -245 530 -498 748 l-50 44 58 -44 c31 -23 64
-43 72 -43 42 0 258 -269 349 -434 74 -134 157 -408 172 -568 5 -57 10 -73 23
-74 13 -1 13 -2 1 -5 -12 -4 -15 -25 -13 -122 2 -158 -28 -315 -93 -485 -36
-95 -111 -239 -141 -272 -10 -11 -38 -47 -61 -80 -49 -69 -229 -254 -281 -289
-109 -72 -229 -141 -312 -180 -105 -50 -370 -127 -376 -110 -2 7 -22 8 -61 3
-31 -4 -96 -11 -144 -14 -72 -6 -88 -10 -89 -23 -1 -15 -2 -15 -6 0 -3 11 -18
18 -46 22 -23 2 -82 10 -132 16 -404 51 -769 261 -1013 584 -72 95 -190 309
-228 411 -10 28 -25 55 -33 61 -8 7 -12 20 -8 33 3 11 2 19 -2 16 -5 -2 -16
42 -26 98 -10 56 -19 110 -21 120 -3 16 -6 184 -4 237 0 20 2 22 10 10 7 -11
10 -4 10 26 0 131 47 336 107 471 35 82 34 63 -4 -37 -98 -262 -120 -605 -57
-879 40 -169 148 -400 261 -552 78 -106 246 -270 345 -337 160 -108 356 -191
553 -233 158 -34 418 -34 590 0 189 37 364 106 504 199 64 43 114 87 87 76
-16 -6 -17 -3 -11 17 4 13 22 49 40 81 19 31 31 59 28 62 -4 3 -1 6 5 6 7 0
12 7 12 15 0 8 5 15 12 15 6 0 8 3 5 7 -4 3 -16 -2 -27 -12 -33 -30 -23 -9 20
40 38 44 76 105 66 105 -3 0 11 32 30 71 31 63 64 155 118 326 30 96 16 89
-23 -12 -67 -176 -138 -283 -275 -420 -98 -98 -141 -132 -226 -182 -96 -57
-150 -83 -168 -83 -4 0 25 17 63 39 288 157 470 351 576 617 90 225 117 537
69 788 -28 143 -126 365 -215 486 -51 69 -221 232 -290 278 -73 49 -232 132
-250 132 -5 0 26 -20 70 -43 79 -41 161 -98 120 -83 -33 12 -58 18 -96 21 -20
1 -41 5 -47 9 -18 11 -81 15 -87 5 -4 -5 -13 -2 -22 7 -9 8 -25 13 -35 10 -11
-2 -50 2 -86 10 -103 21 -870 20 -934 -2 -47 -15 -162 -107 -151 -118 4 -3 -8
1 -26 10 -18 9 -41 14 -52 11 -26 -7 -24 7 10 57 40 58 104 114 160 140 44 20
64 21 486 26 l440 6 -395 2 -395 3 45 21 c25 12 66 32 93 44 26 12 44 18 41
12 -4 -6 5 -2 20 7 14 10 26 14 26 11 0 -4 10 0 23 8 12 8 38 18 57 22 19 4
37 8 40 9 29 8 84 16 120 18 25 2 52 7 59 12 10 6 12 4 6 -6 -7 -11 -6 -12 6
-2 14 11 19 13 39 13 6 0 11 8 11 18 1 16 2 16 6 0 3 -10 17 -19 36 -22z m223
-312 c91 -18 222 -65 284 -101 100 -58 245 -184 315 -273 126 -160 169 -251
216 -455 42 -189 27 -465 -37 -660 -96 -295 -367 -569 -649 -656 -153 -47
-193 -50 -615 -43 -395 6 -395 6 -453 32 -68 29 -128 92 -145 150 -9 29 -12
277 -12 933 l0 894 24 51 c26 55 65 91 136 123 43 20 65 21 453 21 331 0 422
-3 483 -16z m-1215 -141 c-5 -10 -38 -52 -73 -93 -79 -94 -151 -201 -193 -288
-111 -229 -160 -544 -121 -783 18 -107 80 -306 123 -394 13 -27 18 -42 10 -33
-8 10 -17 15 -21 11 -4 -4 -4 1 0 11 5 13 4 17 -4 12 -6 -3 -13 3 -17 16 -4
13 -22 62 -41 109 -57 148 -78 269 -78 459 1 143 4 180 27 280 31 133 89 291
141 385 46 80 144 214 205 278 49 51 57 57 42 30z m-40 -256 c-135 -180 -219
-422 -228 -654 -8 -206 22 -366 101 -537 25 -53 41 -98 36 -101 -10 -6 -70
115 -99 201 -42 128 -56 221 -55 394 1 150 3 175 31 280 17 63 51 159 77 214
51 111 157 277 164 257 2 -7 -10 -32 -27 -54z m-1 -257 c-17 -34 -45 -114 -63
-178 -28 -107 -31 -130 -31 -267 0 -129 4 -165 27 -257 14 -59 33 -124 42
-144 20 -47 19 -64 -1 -36 -9 13 -29 71 -45 130 -34 121 -48 286 -37 417 9
101 57 272 98 348 42 77 50 66 10 -13z m-180 -1122 c10 -21 10 -21 -3 -6 -8
10 -18 14 -22 10 -5 -4 -5 -1 -1 6 10 17 14 15 26 -10z m1347 -694 c-3 -3 -12
-4 -19 -1 -8 3 -5 6 6 6 11 1 17 -2 13 -5z m-119 -11 c-27 -2 -69 -2 -95 0
-27 2 -5 3 47 3 52 0 74 -1 48 -3z"/>
<path d="M2843 3833 c9 -2 23 -2 30 0 6 3 -1 5 -18 5 -16 0 -22 -2 -12 -5z"/>
<path d="M2898 3823 c7 -3 16 -2 19 1 4 3 -2 6 -13 5 -11 0 -14 -3 -6 -6z"/>
<path d="M3000 3795 c46 -18 64 -17 25 0 -16 8 -37 14 -45 14 -8 0 1 -7 20
-14z"/>
<path d="M3650 3700 c0 -5 5 -10 11 -10 5 0 7 5 4 10 -3 6 -8 10 -11 10 -2 0
-4 -4 -4 -10z"/>
<path d="M3576 3541 c-4 -5 5 -21 19 -35 14 -15 24 -30 21 -35 -3 -5 1 -11 9
-15 8 -3 15 -13 15 -21 0 -9 4 -14 8 -11 5 3 8 -5 8 -17 -1 -16 4 -21 17 -19
9 2 24 -4 32 -12 20 -19 19 -21 -7 -23 -16 -2 -19 0 -9 6 10 6 10 10 1 16 -15
9 -24 0 -17 -19 4 -11 16 -15 37 -12 17 2 33 -1 37 -7 3 -5 1 -7 -5 -3 -6 3
-13 2 -16 -3 -5 -8 16 -23 36 -25 3 -1 10 -5 15 -10 5 -5 3 -6 -4 -2 -7 4 -13
2 -13 -4 0 -6 -5 -8 -12 -4 -6 4 -3 -5 8 -19 10 -15 22 -27 27 -27 12 0 8 12
-10 26 -15 12 -16 13 -2 8 29 -9 29 11 2 52 -48 72 -126 163 -134 158 -5 -3
-10 0 -10 5 -1 6 -2 16 -3 22 -2 17 -43 42 -50 30z m44 -27 c0 -2 -9 0 -20 6
-11 6 -20 13 -20 16 0 2 9 0 20 -6 11 -6 20 -13 20 -16z"/>
<path d="M4092 2840 c0 -14 2 -19 5 -12 2 6 2 18 0 25 -3 6 -5 1 -5 -13z"/>
<path d="M2123 3397 c0 -9 15 -14 41 -14 31 0 34 1 11 4 -16 3 -35 9 -41 14
-7 5 -11 4 -11 -4z"/>
<path d="M2453 3373 l-293 -3 0 -745 0 -745 314 0 c290 0 319 2 382 21 119 36
202 86 290 174 68 67 89 96 127 175 68 141 80 208 75 392 -4 132 -8 164 -32
233 -15 44 -40 103 -57 130 -26 44 -26 46 -4 20 14 -16 37 -59 52 -95 34 -83
38 -87 39 -42 0 20 -1 31 -4 23 -3 -8 -11 4 -18 25 -8 21 -12 45 -9 52 3 8 0
10 -7 6 -8 -5 -9 -2 -5 9 4 10 2 16 -5 14 -7 -1 -13 8 -14 19 -2 27 -41 84
-56 81 -6 -1 -13 4 -16 12 -3 9 0 11 8 6 9 -6 11 -4 6 4 -5 7 -10 10 -13 7 -7
-7 -119 95 -116 105 1 3 -5 6 -15 5 -9 0 -16 4 -15 10 1 7 -5 11 -15 10 -9 0
-16 5 -14 12 1 8 -2 11 -8 7 -14 -9 -52 14 -44 27 4 6 3 8 -4 5 -5 -4 -51 6
-102 23 -50 16 -102 29 -113 28 -12 -2 -154 -4 -314 -5z m382 -24 c52 -20 34
-18 -50 6 -29 8 -40 14 -25 14 14 -1 48 -9 75 -20z m125 -49 c22 -11 40 -23
40 -25 0 -5 -79 32 -89 41 -11 10 14 2 49 -16z m242 -195 c25 -35 20 -30 -52
50 -46 51 -48 54 -11 20 23 -22 52 -53 63 -70z m69 -50 c6 -11 -1 -6 -15 10
-14 17 -26 35 -26 40 1 11 27 -20 41 -50z m-709 -122 c-17 -21 -79 -85 -138
-143 -60 -58 -97 -91 -84 -75 27 34 243 255 248 255 2 0 -10 -17 -26 -37z
m-172 14 c0 -2 -10 -12 -22 -23 l-23 -19 19 23 c18 21 26 27 26 19z m269 -104
c-53 -54 -150 -154 -217 -223 -67 -68 -124 -121 -127 -118 -7 7 416 439 430
438 5 0 -33 -44 -86 -97z m200 20 c-78 -82 -104 -116 -102 -132 2 -10 0 -11
-3 -3 -5 10 -14 6 -35 -14 -15 -15 -25 -32 -22 -38 3 -6 2 -7 -2 -3 -5 4 -94
-77 -199 -180 -104 -103 -175 -170 -158 -148 44 57 535 555 547 555 5 0 -7
-17 -26 -37z m135 -45 c-73 -80 -72 -74 -11 -92 30 -9 58 -16 61 -16 3 0 22
15 43 33 l38 32 -28 -33 c-33 -41 -33 -48 -4 -63 12 -6 31 -20 43 -31 19 -17
22 -17 34 -3 7 8 17 15 23 15 5 0 3 -8 -6 -18 -18 -19 -16 -43 7 -116 9 -26
13 -52 10 -57 -3 -6 -7 -25 -9 -45 -9 -98 -125 -264 -234 -333 -69 -45 -188
-81 -263 -81 -35 0 -58 4 -53 8 6 4 11 18 13 32 3 24 2 24 -31 -8 -18 -17 -41
-32 -50 -32 -15 0 -14 5 9 33 17 21 27 49 30 78 5 58 8 71 18 87 4 7 6 16 3
19 -7 6 -87 -62 -177 -152 -97 -97 -104 -78 -9 25 45 50 85 90 88 90 4 0 43
39 86 87 44 48 75 84 68 80 -7 -4 -20 5 -33 23 -12 16 -29 30 -38 30 -9 0 -84
-66 -165 -147 -82 -82 -148 -143 -146 -137 2 7 80 91 173 188 163 170 192 202
195 218 1 4 4 15 8 24 3 9 0 20 -8 24 -11 7 -10 13 5 29 11 12 14 21 9 21 -21
0 -21 26 -1 27 29 3 70 32 62 45 -4 7 -3 8 4 4 7 -4 12 -2 12 3 0 20 32 11 37
-9 5 -17 8 -18 21 -8 13 11 14 11 7 -2 -5 -8 20 13 56 46 110 106 164 148 103
82z"/>
<path d="M2143 3335 c0 -22 2 -30 4 -17 2 12 2 30 0 40 -3 9 -5 -1 -4 -23z"/>
<path d="M3165 3200 c10 -11 20 -20 23 -20 3 0 -3 9 -13 20 -10 11 -20 20 -23
20 -3 0 3 -9 13 -20z"/>
<path d="M1819 2327 c-3 -548 -1 -593 23 -641 27 -54 55 -84 103 -109 39 -20
51 -21 455 -18 513 3 534 5 698 91 85 44 136 85 126 102 -4 6 -3 8 2 5 6 -3
16 3 23 15 7 11 8 17 2 14 -5 -4 -13 -2 -16 4 -4 6 -3 10 2 9 25 -4 40 4 51
31 8 16 19 28 25 27 7 -1 11 6 11 15 -1 10 3 16 10 15 6 -1 10 4 9 11 -2 6 2
12 7 12 6 0 10 6 10 14 0 7 10 16 22 19 12 4 19 9 15 13 -4 4 5 17 18 30 14
13 25 28 25 34 0 5 4 10 8 10 5 0 9 6 10 13 2 30 19 70 52 125 11 18 15 30 8
26 -8 -5 -9 -2 -5 9 4 10 10 24 14 34 4 11 3 14 -5 9 -7 -4 -12 -3 -12 3 0 5
8 15 18 20 16 10 16 12 -1 25 -21 16 -35 72 -16 60 8 -5 9 -3 5 5 -5 7 -14 10
-22 7 -8 -3 -11 0 -8 8 7 18 -16 32 -26 16 -5 -8 -10 -9 -14 -1 -4 6 -19 9
-34 7 -26 -3 -28 0 -25 28 2 17 -4 6 -12 -24 -42 -147 -110 -275 -194 -364
-86 -91 -263 -184 -391 -206 -41 -7 -178 -10 -365 -8 l-300 3 -5 350 c-3 193
-6 344 -8 337 -1 -8 -7 -10 -14 -5 -7 4 -23 6 -34 5 -12 -2 -24 4 -27 12 -4 9
-17 16 -31 16 -13 0 -26 7 -30 15 -3 8 -11 14 -17 13 -6 -2 -14 4 -16 12 -4
13 -3 13 7 0 9 -12 11 -12 8 -1 -2 8 -11 15 -20 17 -37 5 -56 16 -66 38 -6 13
-20 26 -31 29 -21 5 -21 4 -22 -336z"/>
<path d="M1396 1536 c53 -61 68 -81 67 -86 -2 -14 10 -29 20 -23 6 3 7 1 3 -5
-16 -26 -43 -32 -57 -14 -12 15 -12 15 1 5 9 -7 21 -8 29 -4 8 5 -2 12 -30 19
l-42 11 39 -40 c21 -22 44 -37 52 -34 7 2 10 1 7 -4 -10 -17 154 -150 265
-215 215 -126 387 -188 611 -221 86 -12 224 -14 235 -3 1 2 5 15 9 29 l6 26
-83 6 c-199 16 -393 66 -590 152 -110 48 -305 175 -388 253 -13 12 -27 19 -31
16 -4 -2 -11 1 -15 7 -5 8 -3 9 7 4 8 -5 -19 28 -60 73 -73 81 -110 114 -55
48z"/>
<path d="M2620 966 c0 -20 27 -27 40 -11 7 8 16 12 21 9 5 -3 9 0 9 5 0 6 -16
11 -35 11 -23 0 -35 -5 -35 -14z"/>
</g>
</svg>
